<svg width="32" height="36" viewBox="0 0 32 36" fill="none" xmlns="http://www.w3.org/2000/svg">
<path d="M26.0998 34.56C24.1398 36.46 21.9998 36.16 19.9398 35.26C17.7598 34.34 15.7598 34.3 13.4598 35.26C10.5798 36.5 9.05984 36.14 7.33984 34.56C-2.42016 24.5 -0.98016 9.18 10.0998 8.62C12.7998 8.76 14.6798 10.1 16.2598 10.22C18.6198 9.74 20.8798 8.36 23.3998 8.54C26.4198 8.78 28.6998 9.98 30.1998 12.14C23.9598 15.88 25.4398 24.1 31.1598 26.4C30.0198 29.4 28.5398 32.38 26.0798 34.58L26.0998 34.56ZM16.0598 8.5C15.7598 4.04 19.3798 0.36 23.5398 0C24.1198 5.16 18.8598 9 16.0598 8.5Z" fill="black"/>
</svg>
