<?xml version="1.0" encoding="UTF-8"?>
<svg id="Layer_1" xmlns="http://www.w3.org/2000/svg" version="1.1" viewBox="0 0 50 50">
  <!-- Generator: Adobe Illustrator 29.3.1, SVG Export Plug-In . SVG Version: 2.1.0 Build 151)  -->
  <defs>
    <style>
      .st0 {
        fill: #fff;
      }
    </style>
  </defs>
  <path class="st0" d="M27.5.9c2.7,0,4.1,0,5.3,0h.5c.5,0,1.1,0,1.7,0,2.6.1,4.3.5,5.8,1.1,1.6.6,2.9,1.4,4.3,2.8,1.2,1.2,2.2,2.7,2.8,4.3.6,1.5,1,3.3,1.1,5.8,0,.6,0,1.2,0,1.7v.5c0,1.2,0,2.6,0,5.3v1.8s0,3.2,0,3.2c0,1.8,0,3.5,0,5.3v.5c0,.5,0,1.1,0,1.7-.1,2.6-.5,4.3-1.1,5.8-.6,1.6-1.5,3.1-2.8,4.3-1.2,1.2-2.7,2.2-4.3,2.8-1.5.6-3.3,1-5.8,1.1h-1.7c0,0-.5,0-.5,0-1.2,0-2.6,0-5.3,0h-1.8s-3.1,0-3.1,0c-1.8,0-3.5,0-5.3,0h-.5c-.6,0-1.1,0-1.7,0-2.6-.1-4.3-.5-5.8-1.1-1.6-.6-3.1-1.6-4.3-2.8-1.2-1.2-2.2-2.7-2.8-4.3-.6-1.5-1-3.3-1.1-5.8v-1.7c0,0,0-.5,0-.5,0-1.8,0-3.5,0-5.3v-4.9c0-1.8,0-3.5,0-5.3v-.5c0-.5,0-1.1,0-1.7.1-2.6.5-4.3,1.1-5.8.6-1.6,1.6-3.1,2.8-4.3,1.2-1.2,2.7-2.2,4.3-2.8,1.5-.6,3.3-1,5.8-1.1.6,0,1.2,0,1.7,0h.5c1.8,0,3.5,0,5.3,0h4.9ZM25,13c-3.2,0-6.2,1.3-8.5,3.5-2.3,2.3-3.5,5.3-3.5,8.5s1.3,6.2,3.5,8.5c2.3,2.3,5.3,3.5,8.5,3.5s6.2-1.3,8.5-3.5c2.3-2.3,3.5-5.3,3.5-8.5s-1.3-6.2-3.5-8.5c-2.3-2.3-5.3-3.5-8.5-3.5ZM25,17.8c.9,0,1.9.2,2.8.5.9.4,1.7.9,2.3,1.6.7.7,1.2,1.5,1.6,2.3.4.9.5,1.8.5,2.8,0,.9-.2,1.9-.5,2.8-.4.9-.9,1.7-1.6,2.3-.7.7-1.5,1.2-2.3,1.6-.9.4-1.8.5-2.8.5-1.9,0-3.7-.8-5.1-2.1s-2.1-3.2-2.1-5.1.8-3.7,2.1-5.1,3.2-2.1,5.1-2.1M37.6,9.4c-.8,0-1.6.3-2.1.9-.6.6-.9,1.3-.9,2.1s.3,1.6.9,2.1c.6.6,1.3.9,2.1.9s1.6-.3,2.1-.9c.6-.6.9-1.3.9-2.1s-.3-1.6-.9-2.1c-.6-.6-1.3-.9-2.1-.9Z"/>
</svg>