<?xml version="1.0" encoding="UTF-8"?>
<svg id="Layer_1" xmlns="http://www.w3.org/2000/svg" version="1.1" viewBox="0 0 465 465">
  <!-- Generator: Adobe Illustrator 29.3.1, SVG Export Plug-In . SVG Version: 2.1.0 Build 151)  -->
  <defs>
    <style>
      .st0 {
        fill: #dbefff;
      }

      .st1 {
        fill: #fff;
      }

      .st2 {
        fill: #ffde94;
      }

      .st3 {
        fill: none;
        stroke: #000;
        stroke-miterlimit: 10;
      }
    </style>
  </defs>
  <circle class="st0" cx="232.5" cy="232.5" r="232.5"/>
  <g>
    <path class="st2" d="M331.2,206.3c0,38.4-22.8,63.9-72.6,71.3-7.1,1.1-13.9-7.6-48.3-15.3-36.8-8.2-70.1-3.1-89.7-24.3-11.8-12.7-5.6-31.1-5.6-47.6,0-27.5,35.1-65.6,35.1-65.6,0,0,26.6-22,49.2-22,37.7,0,63.7,9.3,83.3,30.4s48.5,56.5,48.5,73h.1Z"/>
    <g>
      <g>
        <path class="st1" d="M193,106.8c.3,12.8.8,24.1,1.3,25.1.5,1.2,1.6,1.7,3.4,1.5,2.2-.3,2.6-.8,3-4.3.3-3.9-1.6-31.3-2.8-40.5-.5-3.8-1-4.6-3-4.8l-2.3-.4.4,23.4h0Z"/>
        <path class="st1" d="M282.9,100.2c-7.8,7-22.1,28.3-22.1,32.9s2.5,3.6,4.1,3,3.9-4.5,6.9-9.3,8.7-12.1,12.7-16.3c7.6-7.9,8.8-11,5.4-12.9-2.7-1.4-2.6-1.4-7,2.6Z"/>
        <path class="st1" d="M110.1,139.3c-2.6,1-1.1,4.3,4,8.9,10.9,9.9,28.3,21.5,33.9,22.8,2.1.5,3,.2,3.8-1.3.5-1.1.7-2.6.4-3.5-.3-.8-5.2-4.2-10.9-7.5s-14.3-9.2-19.1-13.1c-8.6-6.8-9.6-7.4-12.1-6.3h0Z"/>
        <path class="st1" d="M214.6,147.1c-11.4,1.8-22.8,5.7-30.9,10.5-9.1,5.4-19.2,16.4-23.8,25.9-3.5,7.4-3.6,7.9-3.6,19.6s.3,12.5,2.6,17.5c3.6,7.6,6.6,10.9,18.2,19.8,14.6,11.2,21.4,21.3,20.5,30.5-.2,2.4-.9,3.3-2.8,3.7-3.5.8-4.1,5.6-.8,7,6.5,2.7,34.8,4.1,38.9,2,1.4-.8,1.9-2.2,1.9-5.3,0-6.5,2.6-16.9,5.5-22.7,3.6-7.1,10-13.3,22.5-21.7,15.8-10.7,24.1-20.2,28.1-32,7.5-22.7-8.1-46.3-35.7-53.9-8.2-2.2-29.5-2.7-40.6-.9h0ZM252.3,156.3c25.2,6.3,37.9,27.2,28.5,47-4,8.6-10.1,14.8-23.5,23.8-12.9,8.6-20.7,16.5-24.7,24.7-3.3,6.7-5.8,15.8-5.8,21v3.8h-7.4c-4,0-10-.3-13.3-.6l-6-.7.8-4.4c2.3-12-4.4-24.6-19.4-36.7-4.6-3.7-9.3-8-10.4-9.5-11.6-15.6-8.8-36.1,7.2-52.2,14.5-14.7,49.5-22.3,74-16.2Z"/>
        <path class="st1" d="M219.9,203.9c-2.9,3.2-4.8,13.1-3.4,18.5,1.3,5,0,7.7-1.5,3.3-1.5-4.3-5.6-8.1-8.8-8.1s-9.4,5.9-9.4,9.9c0,6.4,4.6,11.1,10.9,11.1s3.1.2,3.1,3.7-.5,6.7-1,10.3c-2.5,16.3-2.5,15.2-.4,14.9,1-.2,2.4,0,3.1.4,2.5,1.6,4.1-.8,6.6-9.7,1.5-5.1,3.8-12.3,5-16.1,2.2-6.4,2.6-6.9,6.2-7.9,5.1-1.5,8.2-5.6,6.9-9.2-1.4-4-3.7-5.1-7.5-3.7-2.7,1.1-3,1-2.4-.5,1.8-4.7,1.7-10-.3-14.5-2.3-5.3-3.8-5.8-7.1-2.4h0ZM208.8,228.2c1.9,4.8.8,5.7-3,2.6-1.4-1.1-1.9-2.3-1.5-3.5,1-2.5,3.4-2.1,4.5.9ZM231.7,228.2c-1.7,2.1-3.1,1.7-1.9-.6.6-1.1,1.5-1.8,2.1-1.4s.6,1.1-.2,2h0ZM219.4,239.7l-2.5,6.4v-4.8c-.1-3.9.4-5.2,2.2-6.7s2.3-1.7,2.5-1.5-.8,3.1-2.2,6.6Z"/>
        <path class="st1" d="M338.1,177.7c-12.3,2.1-35.3,13.7-35.3,17.8s2.8,3.1,12.2-1.5c5.6-2.6,13.7-5.5,20.3-7.1,11.9-2.8,15.8-5.1,13.9-8.1-1.3-2-4.1-2.3-11.1-1.1h0Z"/>
        <path class="st1" d="M116.3,207c-16.4,4.3-24.5,7.7-24.5,10.5s.4,2.3,1,2.6c.5.3,5.6-.7,11.3-2.4,5.7-1.6,15-3.7,20.8-4.6,13.4-2.3,14.9-2.9,14.9-5.9,0-4.7-5.8-4.8-23.5-.2h0Z"/>
        <path class="st1" d="M137,254.3c-6.6,7.1-17.8,21.1-19.8,24.9-2.2,4-1.1,6.9,2.6,6.9s3.7-2.1,8.8-9.5c3.5-5.2,8-11.5,10.1-14s4.5-5.7,5.5-7.1c1.5-2.5,1.6-2.8.1-4.3s-1.9-1.6-2.3-1.6-2.6,2.1-5,4.7h0Z"/>
        <path class="st1" d="M286.1,254.3c-2.8,1.1-.9,4,5.5,8.6,28.2,20.1,30.5,21.5,32.6,19.8,2.6-2.2,1.9-4.7-2.1-7.9-4.8-3.7-33-21.2-34-21.1-.5,0-1.4.3-2,.6Z"/>
        <path class="st1" d="M200.8,290.5c-7.6,1.1-10.3,2.6-9,5,.8,1.6,2.6,2,10.7,2.5,5.4.4,13.7.9,18.4,1.2,7,.4,8.8.2,9.8-1,1.7-2,.7-6.2-1.6-7.1-2.8-1-22.2-1.5-28.3-.6h0Z"/>
        <path class="st1" d="M196.8,303.5c-3.6.5-4.5,1-4.5,2.6s1,2.2,5.5,3.1c5.2,1,5.5,1.2,5.2,3.9-.7,6.6,4.1,11.5,11.4,11.5s4.4-.8,6.9-3.3c5.9-5.9,5.7-14.3-.5-17.4s-15.6-1.5-24-.4h0ZM215.3,313.6c-.3.5-1.4,1-2.3,1-1.5,0-1.5-.2-.2-1,2-1.3,3.3-1.3,2.5,0Z"/>
        <path class="st1" d="M286.8,325.6c-4,1-6,3.3-5.3,6.1.8,3,3.6,4.1,8.4,3,5.8-1.3,7.8-5.1,4.3-8.5-1.7-1.7-2.2-1.8-7.4-.6Z"/>
        <path class="st1" d="M138.1,334.1c-2.5,2.1-5.4,6.2-7.6,10.7-3.6,7.2-7.7,21.7-7.7,27s3.7,6.2,6.3,5.2c1.7-.6,3.7-6.1,3.7-10.2s.5-2.2,5-2.2h5v3.8c0,4.7,2.3,8.2,5.6,8.2s4.6-2.8,3.6-22.7c-.7-14.3-1.2-18.7-2.5-20.7-2.5-3.7-6.4-3.4-11.4.9h0ZM142.6,355.1c-.7.7-5.8-.8-5.8-1.8s1.2-3.1,2.8-5.6l2.7-4.6.3,5.9c.2,3.2.2,6,0,6.1Z"/>
        <path class="st1" d="M167.5,331.3c-1.5.2-3.4,1.4-4.1,2.6-.8,1.2-2.2,8.6-3.1,16.4-1.5,11.9-1.5,14.8-.5,17.4,2.8,6.7,12.8,9,20.4,4.6,5.9-3.3,8.1-6.9,8-12.9,0-4.3.4-5.4,3.3-8.3,5.4-5.4,3.7-12.6-4.2-17.5-3.7-2.3-13.3-3.4-19.8-2.3h0ZM180.8,341.2c2.2.9,4,2.2,4,3,0,1.4-8.6,4.4-12.5,4.4s-2.1-.5-1.8-3.3c.3-1.7.6-3.8.8-4.5.6-1.7,4.7-1.5,9.5.4ZM176.2,358.6c1.4.5,2.6,1.6,2.6,2.4,0,1.8-4.9,4.6-8,4.6s-2-.6-2-4,.3-4,2.4-4,3.6.4,5,1Z"/>
        <path class="st1" d="M252.1,334.1c-2.5,2.1-5.4,6.2-7.6,10.7-3.6,7.2-7.7,21.7-7.7,27s3.7,6.2,6.3,5.2c1.7-.6,3.7-6.1,3.7-10.2s.5-2.2,5-2.2h5v3.8c0,4.7,2.3,8.2,5.6,8.2s4.6-2.8,3.6-22.7c-.7-14.3-1.2-18.7-2.5-20.7-2.5-3.7-6.4-3.4-11.4.9h0ZM256.6,355.1c-.7.7-5.8-.8-5.8-1.8s1.2-3.1,2.8-5.6l2.7-4.6.3,5.9c.2,3.2.2,6,0,6.1Z"/>
        <path class="st1" d="M108.5,334.1c-.8.8-2,4.7-2.7,8.7-1.6,10-1.4,9.8-6,9.8s-4,0-4-3.8.4-5.4.9-7.5c.8-3.2.6-4.2-1-5.8-2.4-2.4-4.1-2.4-6.3,0-1.9,2-1.8,1.5-4.6,25.9-2.2,18.7-2,20.2,2.6,20.2s5.1-3.4,5.9-11.8l.7-7.2h8.9l-.6,6.8c-.6,5.6-.4,7,1,8.2,1.2,1,2.3,1.1,4.3.4,3.2-1.1,3.2-1.3,6.3-24.8l2.2-17-2.3-1.8c-2.7-2.2-3.4-2.2-5.3-.3h0Z"/>
        <path class="st1" d="M222.5,334c-.8.8-1.7,4.6-2.1,8.5-.7,6.5-.9,7.1-2.9,7.1s-3.3-.7-4.5-1.6c-1.8-1.2-2.2-2.5-2.2-6.8s-1.2-7.6-4.6-7.6-4.7,2.5-4.7,9c.1,9.4,4.3,14.2,13.5,15.8l4.1.7-.2,7.7c-.2,6.8,0,7.8,1.8,8.7,1.3.7,2.8.8,4.4.2,2.9-1.1,3.3-3.5,4.3-25.8.5-10.8.4-14.6-.6-15.8-1.6-1.9-4.4-1.9-6.3-.1h0Z"/>
        <path class="st1" d="M365.3,335c-10.4,4.6-13,20.9-4.3,27,2.1,1.5,2.1,1.6.2,3.7-1,1.2-3.9,3.1-6.4,4.3-4.8,2.2-6.3,5.4-4,8.2,2.6,3,8.8,1.1,16.5-5.2l4.1-3.3,1.1,2.9c1.5,3.9,5.5,4.1,7.9.5,1.5-2.3,1.6-4.2.6-18-1-14.5-2-19-4.6-20.7-1.7-1.2-7.8-.8-11.1.6h0ZM371.2,349.2c.4,3.1.4,5.9.2,6.2-1.3,1.2-5.6-1-6.2-3.2-.8-3.3,2.1-8.5,4.7-8.6.3,0,.9,2.5,1.3,5.6Z"/>
        <path class="st1" d="M326.3,338c-8.4,3.9-13.5,11.5-13.5,20.1s10.5,18.8,24,15.4c4.9-1.2,5.5-1.7,5.8-4.2.6-4.8-1.1-5.7-9.3-5-6.5.5-7.4.4-9.4-1.6s-2.7-5.1-.4-9.8c1.9-4.1,6.6-7.3,10.6-7.3s6.7-3,6.7-5-4.1-5-6.7-5-5.1,1.1-7.8,2.4h0Z"/>
        <path class="st1" d="M273.8,340.2c-2.7,6.9-.3,27.7,3.7,32.5,3.9,4.6,11.5,3.7,16-1.9,1.1-1.3,1.6-1.2,3.7,1.1,2.7,3,3.8,3.2,6.7,1.7,2.3-1.3,2.4-3.5.3-8.6-1.3-3.2-1.5-5.8-1-13.7.8-10.7.1-12.7-3.9-12.7s-4.1,1.6-5.3,8.6c-1.2,6.7-4.8,14.8-8,17.7-1.9,1.7-2,1.7-2.6-.5-.3-1.3-.6-7.3-.6-13.4,0-12-.6-13.4-5.2-13.4s-3.1.6-3.8,2.6h0Z"/>
      </g>
      <g>
        <path d="M193,106.8c.3,12.8.8,24.1,1.3,25.1.5,1.2,1.6,1.7,3.4,1.5,2.2-.3,2.6-.8,3-4.3.3-3.9-1.6-31.3-2.8-40.5-.5-3.8-1-4.6-3-4.8l-2.3-.4.4,23.4h0Z"/>
        <path d="M282.9,100.2c-7.8,7-22.1,28.3-22.1,32.9s2.5,3.6,4.1,3,3.9-4.5,6.9-9.3,8.7-12.1,12.7-16.3c7.6-7.9,8.8-11,5.4-12.9-2.7-1.4-2.6-1.4-7,2.6Z"/>
        <path d="M110.1,139.3c-2.6,1-1.1,4.3,4,8.9,10.9,9.9,28.3,21.5,33.9,22.8,2.1.5,3,.2,3.8-1.3.5-1.1.7-2.6.4-3.5-.3-.8-5.2-4.2-10.9-7.5s-14.3-9.2-19.1-13.1c-8.6-6.8-9.6-7.4-12.1-6.3h0Z"/>
        <path d="M214.6,147.1c-11.4,1.8-22.8,5.7-30.9,10.5-9.1,5.4-19.2,16.4-23.8,25.9-3.5,7.4-3.6,7.9-3.6,19.6s.3,12.5,2.6,17.5c3.6,7.6,6.6,10.9,18.2,19.8,14.6,11.2,21.4,21.3,20.5,30.5-.2,2.4-.9,3.3-2.8,3.7-3.5.8-4.1,5.6-.8,7,6.5,2.7,34.8,4.1,38.9,2,1.4-.8,1.9-2.2,1.9-5.3,0-6.5,2.6-16.9,5.5-22.7,3.6-7.1,10-13.3,22.5-21.7,15.8-10.7,24.1-20.2,28.1-32,7.5-22.7-8.1-46.3-35.7-53.9-8.2-2.2-29.5-2.7-40.6-.9h0ZM252.3,156.3c25.2,6.3,37.9,27.2,28.5,47-4,8.6-10.1,14.8-23.5,23.8-12.9,8.6-20.7,16.5-24.7,24.7-3.3,6.7-5.8,15.8-5.8,21v3.8h-7.4c-4,0-10-.3-13.3-.6l-6-.7.8-4.4c2.3-12-4.4-24.6-19.4-36.7-4.6-3.7-9.3-8-10.4-9.5-11.6-15.6-8.8-36.1,7.2-52.2,14.5-14.7,49.5-22.3,74-16.2Z"/>
        <path d="M219.9,203.9c-2.9,3.2-4.8,13.1-3.4,18.5,1.3,5,0,7.7-1.5,3.3-1.5-4.3-5.6-8.1-8.8-8.1s-9.4,5.9-9.4,9.9c0,6.4,4.6,11.1,10.9,11.1s3.1.2,3.1,3.7-.5,6.7-1,10.3c-2.5,16.3-2.5,15.2-.4,14.9,1-.2,2.4,0,3.1.4,2.5,1.6,4.1-.8,6.6-9.7,1.5-5.1,3.8-12.3,5-16.1,2.2-6.4,2.6-6.9,6.2-7.9,5.1-1.5,8.2-5.6,6.9-9.2-1.4-4-3.7-5.1-7.5-3.7-2.7,1.1-3,1-2.4-.5,1.8-4.7,1.7-10-.3-14.5-2.3-5.3-3.8-5.8-7.1-2.4h0ZM208.8,228.2c1.9,4.8.8,5.7-3,2.6-1.4-1.1-1.9-2.3-1.5-3.5,1-2.5,3.4-2.1,4.5.9ZM231.7,228.2c-1.7,2.1-3.1,1.7-1.9-.6.6-1.1,1.5-1.8,2.1-1.4s.6,1.1-.2,2h0ZM219.4,239.7l-2.5,6.4v-4.8c-.1-3.9.4-5.2,2.2-6.7s2.3-1.7,2.5-1.5-.8,3.1-2.2,6.6Z"/>
        <path d="M338.1,177.7c-12.3,2.1-35.3,13.7-35.3,17.8s2.8,3.1,12.2-1.5c5.6-2.6,13.7-5.5,20.3-7.1,11.9-2.8,15.8-5.1,13.9-8.1-1.3-2-4.1-2.3-11.1-1.1h0Z"/>
        <path d="M116.3,207c-16.4,4.3-24.5,7.7-24.5,10.5s.4,2.3,1,2.6c.5.3,5.6-.7,11.3-2.4,5.7-1.6,15-3.7,20.8-4.6,13.4-2.3,14.9-2.9,14.9-5.9,0-4.7-5.8-4.8-23.5-.2h0Z"/>
        <path d="M137,254.3c-6.6,7.1-17.8,21.1-19.8,24.9-2.2,4-1.1,6.9,2.6,6.9s3.7-2.1,8.8-9.5c3.5-5.2,8-11.5,10.1-14s4.5-5.7,5.5-7.1c1.5-2.5,1.6-2.8.1-4.3s-1.9-1.6-2.3-1.6-2.6,2.1-5,4.7h0Z"/>
        <path d="M286.1,254.3c-2.8,1.1-.9,4,5.5,8.6,28.2,20.1,30.5,21.5,32.6,19.8,2.6-2.2,1.9-4.7-2.1-7.9-4.8-3.7-33-21.2-34-21.1-.5,0-1.4.3-2,.6Z"/>
        <path d="M200.8,290.5c-7.6,1.1-10.3,2.6-9,5,.8,1.6,2.6,2,10.7,2.5,5.4.4,13.7.9,18.4,1.2,7,.4,8.8.2,9.8-1,1.7-2,.7-6.2-1.6-7.1-2.8-1-22.2-1.5-28.3-.6h0Z"/>
        <path d="M196.8,303.5c-3.6.5-4.5,1-4.5,2.6s1,2.2,5.5,3.1c5.2,1,5.5,1.2,5.2,3.9-.7,6.6,4.1,11.5,11.4,11.5s4.4-.8,6.9-3.3c5.9-5.9,5.7-14.3-.5-17.4s-15.6-1.5-24-.4h0ZM215.3,313.6c-.3.5-1.4,1-2.3,1-1.5,0-1.5-.2-.2-1,2-1.3,3.3-1.3,2.5,0Z"/>
        <path d="M286.8,325.6c-4,1-6,3.3-5.3,6.1.8,3,3.6,4.1,8.4,3,5.8-1.3,7.8-5.1,4.3-8.5-1.7-1.7-2.2-1.8-7.4-.6Z"/>
        <path d="M138.1,334.1c-2.5,2.1-5.4,6.2-7.6,10.7-3.6,7.2-7.7,21.7-7.7,27s3.7,6.2,6.3,5.2c1.7-.6,3.7-6.1,3.7-10.2s.5-2.2,5-2.2h5v3.8c0,4.7,2.3,8.2,5.6,8.2s4.6-2.8,3.6-22.7c-.7-14.3-1.2-18.7-2.5-20.7-2.5-3.7-6.4-3.4-11.4.9h0ZM142.6,355.1c-.7.7-5.8-.8-5.8-1.8s1.2-3.1,2.8-5.6l2.7-4.6.3,5.9c.2,3.2.2,6,0,6.1Z"/>
        <path d="M167.5,331.3c-1.5.2-3.4,1.4-4.1,2.6-.8,1.2-2.2,8.6-3.1,16.4-1.5,11.9-1.5,14.8-.5,17.4,2.8,6.7,12.8,9,20.4,4.6,5.9-3.3,8.1-6.9,8-12.9,0-4.3.4-5.4,3.3-8.3,5.4-5.4,3.7-12.6-4.2-17.5-3.7-2.3-13.3-3.4-19.8-2.3h0ZM180.8,341.2c2.2.9,4,2.2,4,3,0,1.4-8.6,4.4-12.5,4.4s-2.1-.5-1.8-3.3c.3-1.7.6-3.8.8-4.5.6-1.7,4.7-1.5,9.5.4ZM176.2,358.6c1.4.5,2.6,1.6,2.6,2.4,0,1.8-4.9,4.6-8,4.6s-2-.6-2-4,.3-4,2.4-4,3.6.4,5,1Z"/>
        <path d="M252.1,334.1c-2.5,2.1-5.4,6.2-7.6,10.7-3.6,7.2-7.7,21.7-7.7,27s3.7,6.2,6.3,5.2c1.7-.6,3.7-6.1,3.7-10.2s.5-2.2,5-2.2h5v3.8c0,4.7,2.3,8.2,5.6,8.2s4.6-2.8,3.6-22.7c-.7-14.3-1.2-18.7-2.5-20.7-2.5-3.7-6.4-3.4-11.4.9h0ZM256.6,355.1c-.7.7-5.8-.8-5.8-1.8s1.2-3.1,2.8-5.6l2.7-4.6.3,5.9c.2,3.2.2,6,0,6.1Z"/>
        <path d="M108.5,334.1c-.8.8-2,4.7-2.7,8.7-1.6,10-1.4,9.8-6,9.8s-4,0-4-3.8.4-5.4.9-7.5c.8-3.2.6-4.2-1-5.8-2.4-2.4-4.1-2.4-6.3,0-1.9,2-1.8,1.5-4.6,25.9-2.2,18.7-2,20.2,2.6,20.2s5.1-3.4,5.9-11.8l.7-7.2h8.9l-.6,6.8c-.6,5.6-.4,7,1,8.2,1.2,1,2.3,1.1,4.3.4,3.2-1.1,3.2-1.3,6.3-24.8l2.2-17-2.3-1.8c-2.7-2.2-3.4-2.2-5.3-.3h0Z"/>
        <path d="M222.5,334c-.8.8-1.7,4.6-2.1,8.5-.7,6.5-.9,7.1-2.9,7.1s-3.3-.7-4.5-1.6c-1.8-1.2-2.2-2.5-2.2-6.8s-1.2-7.6-4.6-7.6-4.7,2.5-4.7,9c.1,9.4,4.3,14.2,13.5,15.8l4.1.7-.2,7.7c-.2,6.8,0,7.8,1.8,8.7,1.3.7,2.8.8,4.4.2,2.9-1.1,3.3-3.5,4.3-25.8.5-10.8.4-14.6-.6-15.8-1.6-1.9-4.4-1.9-6.3-.1h0Z"/>
        <path d="M365.3,335c-10.4,4.6-13,20.9-4.3,27,2.1,1.5,2.1,1.6.2,3.7-1,1.2-3.9,3.1-6.4,4.3-4.8,2.2-6.3,5.4-4,8.2,2.6,3,8.8,1.1,16.5-5.2l4.1-3.3,1.1,2.9c1.5,3.9,5.5,4.1,7.9.5,1.5-2.3,1.6-4.2.6-18-1-14.5-2-19-4.6-20.7-1.7-1.2-7.8-.8-11.1.6h0ZM371.2,349.2c.4,3.1.4,5.9.2,6.2-1.3,1.2-5.6-1-6.2-3.2-.8-3.3,2.1-8.5,4.7-8.6.3,0,.9,2.5,1.3,5.6Z"/>
        <path d="M326.3,338c-8.4,3.9-13.5,11.5-13.5,20.1s10.5,18.8,24,15.4c4.9-1.2,5.5-1.7,5.8-4.2.6-4.8-1.1-5.7-9.3-5-6.5.5-7.4.4-9.4-1.6s-2.7-5.1-.4-9.8c1.9-4.1,6.6-7.3,10.6-7.3s6.7-3,6.7-5-4.1-5-6.7-5-5.1,1.1-7.8,2.4h0Z"/>
        <path d="M273.8,340.2c-2.7,6.9-.3,27.7,3.7,32.5,3.9,4.6,11.5,3.7,16-1.9,1.1-1.3,1.6-1.2,3.7,1.1,2.7,3,3.8,3.2,6.7,1.7,2.3-1.3,2.4-3.5.3-8.6-1.3-3.2-1.5-5.8-1-13.7.8-10.7.1-12.7-3.9-12.7s-4.1,1.6-5.3,8.6c-1.2,6.7-4.8,14.8-8,17.7-1.9,1.7-2,1.7-2.6-.5-.3-1.3-.6-7.3-.6-13.4,0-12-.6-13.4-5.2-13.4s-3.1.6-3.8,2.6h0Z"/>
      </g>
      <g>
        <path class="st3" d="M193,106.8c.3,12.8.8,24.1,1.3,25.1.5,1.2,1.6,1.7,3.4,1.5,2.2-.3,2.6-.8,3-4.3.3-3.9-1.6-31.3-2.8-40.5-.5-3.8-1-4.6-3-4.8l-2.3-.4.4,23.4h0Z"/>
        <path class="st3" d="M282.9,100.2c-7.8,7-22.1,28.3-22.1,32.9s2.5,3.6,4.1,3,3.9-4.5,6.9-9.3,8.7-12.1,12.7-16.3c7.6-7.9,8.8-11,5.4-12.9-2.7-1.4-2.6-1.4-7,2.6Z"/>
        <path class="st3" d="M110.1,139.3c-2.6,1-1.1,4.3,4,8.9,10.9,9.9,28.3,21.5,33.9,22.8,2.1.5,3,.2,3.8-1.3.5-1.1.7-2.6.4-3.5-.3-.8-5.2-4.2-10.9-7.5s-14.3-9.2-19.1-13.1c-8.6-6.8-9.6-7.4-12.1-6.3h0Z"/>
        <path class="st3" d="M214.6,147.1c-11.4,1.8-22.8,5.7-30.9,10.5-9.1,5.4-19.2,16.4-23.8,25.9-3.5,7.4-3.6,7.9-3.6,19.6s.3,12.5,2.6,17.5c3.6,7.6,6.6,10.9,18.2,19.8,14.6,11.2,21.4,21.3,20.5,30.5-.2,2.4-.9,3.3-2.8,3.7-3.5.8-4.1,5.6-.8,7,6.5,2.7,34.8,4.1,38.9,2,1.4-.8,1.9-2.2,1.9-5.3,0-6.5,2.6-16.9,5.5-22.7,3.6-7.1,10-13.3,22.5-21.7,15.8-10.7,24.1-20.2,28.1-32,7.5-22.7-8.1-46.3-35.7-53.9-8.2-2.2-29.5-2.7-40.6-.9h0ZM252.3,156.3c25.2,6.3,37.9,27.2,28.5,47-4,8.6-10.1,14.8-23.5,23.8-12.9,8.6-20.7,16.5-24.7,24.7-3.3,6.7-5.8,15.8-5.8,21v3.8h-7.4c-4,0-10-.3-13.3-.6l-6-.7.8-4.4c2.3-12-4.4-24.6-19.4-36.7-4.6-3.7-9.3-8-10.4-9.5-11.6-15.6-8.8-36.1,7.2-52.2,14.5-14.7,49.5-22.3,74-16.2Z"/>
        <path class="st3" d="M219.9,203.9c-2.9,3.2-4.8,13.1-3.4,18.5,1.3,5,0,7.7-1.5,3.3-1.5-4.3-5.6-8.1-8.8-8.1s-9.4,5.9-9.4,9.9c0,6.4,4.6,11.1,10.9,11.1s3.1.2,3.1,3.7-.5,6.7-1,10.3c-2.5,16.3-2.5,15.2-.4,14.9,1-.2,2.4,0,3.1.4,2.5,1.6,4.1-.8,6.6-9.7,1.5-5.1,3.8-12.3,5-16.1,2.2-6.4,2.6-6.9,6.2-7.9,5.1-1.5,8.2-5.6,6.9-9.2-1.4-4-3.7-5.1-7.5-3.7-2.7,1.1-3,1-2.4-.5,1.8-4.7,1.7-10-.3-14.5-2.3-5.3-3.8-5.8-7.1-2.4h0ZM208.8,228.2c1.9,4.8.8,5.7-3,2.6-1.4-1.1-1.9-2.3-1.5-3.5,1-2.5,3.4-2.1,4.5.9ZM231.7,228.2c-1.7,2.1-3.1,1.7-1.9-.6.6-1.1,1.5-1.8,2.1-1.4s.6,1.1-.2,2h0ZM219.4,239.7l-2.5,6.4v-4.8c-.1-3.9.4-5.2,2.2-6.7s2.3-1.7,2.5-1.5-.8,3.1-2.2,6.6Z"/>
        <path class="st3" d="M338.1,177.7c-12.3,2.1-35.3,13.7-35.3,17.8s2.8,3.1,12.2-1.5c5.6-2.6,13.7-5.5,20.3-7.1,11.9-2.8,15.8-5.1,13.9-8.1-1.3-2-4.1-2.3-11.1-1.1h0Z"/>
        <path class="st3" d="M116.3,207c-16.4,4.3-24.5,7.7-24.5,10.5s.4,2.3,1,2.6c.5.3,5.6-.7,11.3-2.4,5.7-1.6,15-3.7,20.8-4.6,13.4-2.3,14.9-2.9,14.9-5.9,0-4.7-5.8-4.8-23.5-.2h0Z"/>
        <path class="st3" d="M137,254.3c-6.6,7.1-17.8,21.1-19.8,24.9-2.2,4-1.1,6.9,2.6,6.9s3.7-2.1,8.8-9.5c3.5-5.2,8-11.5,10.1-14s4.5-5.7,5.5-7.1c1.5-2.5,1.6-2.8.1-4.3s-1.9-1.6-2.3-1.6-2.6,2.1-5,4.7h0Z"/>
        <path class="st3" d="M286.1,254.3c-2.8,1.1-.9,4,5.5,8.6,28.2,20.1,30.5,21.5,32.6,19.8,2.6-2.2,1.9-4.7-2.1-7.9-4.8-3.7-33-21.2-34-21.1-.5,0-1.4.3-2,.6Z"/>
        <path class="st3" d="M200.8,290.5c-7.6,1.1-10.3,2.6-9,5,.8,1.6,2.6,2,10.7,2.5,5.4.4,13.7.9,18.4,1.2,7,.4,8.8.2,9.8-1,1.7-2,.7-6.2-1.6-7.1-2.8-1-22.2-1.5-28.3-.6h0Z"/>
        <path class="st3" d="M196.8,303.5c-3.6.5-4.5,1-4.5,2.6s1,2.2,5.5,3.1c5.2,1,5.5,1.2,5.2,3.9-.7,6.6,4.1,11.5,11.4,11.5s4.4-.8,6.9-3.3c5.9-5.9,5.7-14.3-.5-17.4s-15.6-1.5-24-.4h0ZM215.3,313.6c-.3.5-1.4,1-2.3,1-1.5,0-1.5-.2-.2-1,2-1.3,3.3-1.3,2.5,0Z"/>
        <path class="st3" d="M286.8,325.6c-4,1-6,3.3-5.3,6.1.8,3,3.6,4.1,8.4,3,5.8-1.3,7.8-5.1,4.3-8.5-1.7-1.7-2.2-1.8-7.4-.6Z"/>
        <path class="st3" d="M138.1,334.1c-2.5,2.1-5.4,6.2-7.6,10.7-3.6,7.2-7.7,21.7-7.7,27s3.7,6.2,6.3,5.2c1.7-.6,3.7-6.1,3.7-10.2s.5-2.2,5-2.2h5v3.8c0,4.7,2.3,8.2,5.6,8.2s4.6-2.8,3.6-22.7c-.7-14.3-1.2-18.7-2.5-20.7-2.5-3.7-6.4-3.4-11.4.9h0ZM142.6,355.1c-.7.7-5.8-.8-5.8-1.8s1.2-3.1,2.8-5.6l2.7-4.6.3,5.9c.2,3.2.2,6,0,6.1Z"/>
        <path class="st3" d="M167.5,331.3c-1.5.2-3.4,1.4-4.1,2.6-.8,1.2-2.2,8.6-3.1,16.4-1.5,11.9-1.5,14.8-.5,17.4,2.8,6.7,12.8,9,20.4,4.6,5.9-3.3,8.1-6.9,8-12.9,0-4.3.4-5.4,3.3-8.3,5.4-5.4,3.7-12.6-4.2-17.5-3.7-2.3-13.3-3.4-19.8-2.3h0ZM180.8,341.2c2.2.9,4,2.2,4,3,0,1.4-8.6,4.4-12.5,4.4s-2.1-.5-1.8-3.3c.3-1.7.6-3.8.8-4.5.6-1.7,4.7-1.5,9.5.4ZM176.2,358.6c1.4.5,2.6,1.6,2.6,2.4,0,1.8-4.9,4.6-8,4.6s-2-.6-2-4,.3-4,2.4-4,3.6.4,5,1Z"/>
        <path class="st3" d="M252.1,334.1c-2.5,2.1-5.4,6.2-7.6,10.7-3.6,7.2-7.7,21.7-7.7,27s3.7,6.2,6.3,5.2c1.7-.6,3.7-6.1,3.7-10.2s.5-2.2,5-2.2h5v3.8c0,4.7,2.3,8.2,5.6,8.2s4.6-2.8,3.6-22.7c-.7-14.3-1.2-18.7-2.5-20.7-2.5-3.7-6.4-3.4-11.4.9h0ZM256.6,355.1c-.7.7-5.8-.8-5.8-1.8s1.2-3.1,2.8-5.6l2.7-4.6.3,5.9c.2,3.2.2,6,0,6.1Z"/>
        <path class="st3" d="M108.5,334.1c-.8.8-2,4.7-2.7,8.7-1.6,10-1.4,9.8-6,9.8s-4,0-4-3.8.4-5.4.9-7.5c.8-3.2.6-4.2-1-5.8-2.4-2.4-4.1-2.4-6.3,0-1.9,2-1.8,1.5-4.6,25.9-2.2,18.7-2,20.2,2.6,20.2s5.1-3.4,5.9-11.8l.7-7.2h8.9l-.6,6.8c-.6,5.6-.4,7,1,8.2,1.2,1,2.3,1.1,4.3.4,3.2-1.1,3.2-1.3,6.3-24.8l2.2-17-2.3-1.8c-2.7-2.2-3.4-2.2-5.3-.3h0Z"/>
        <path class="st3" d="M222.5,334c-.8.8-1.7,4.6-2.1,8.5-.7,6.5-.9,7.1-2.9,7.1s-3.3-.7-4.5-1.6c-1.8-1.2-2.2-2.5-2.2-6.8s-1.2-7.6-4.6-7.6-4.7,2.5-4.7,9c.1,9.4,4.3,14.2,13.5,15.8l4.1.7-.2,7.7c-.2,6.8,0,7.8,1.8,8.7,1.3.7,2.8.8,4.4.2,2.9-1.1,3.3-3.5,4.3-25.8.5-10.8.4-14.6-.6-15.8-1.6-1.9-4.4-1.9-6.3-.1h0Z"/>
        <path class="st3" d="M365.3,335c-10.4,4.6-13,20.9-4.3,27,2.1,1.5,2.1,1.6.2,3.7-1,1.2-3.9,3.1-6.4,4.3-4.8,2.2-6.3,5.4-4,8.2,2.6,3,8.8,1.1,16.5-5.2l4.1-3.3,1.1,2.9c1.5,3.9,5.5,4.1,7.9.5,1.5-2.3,1.6-4.2.6-18-1-14.5-2-19-4.6-20.7-1.7-1.2-7.8-.8-11.1.6h0ZM371.2,349.2c.4,3.1.4,5.9.2,6.2-1.3,1.2-5.6-1-6.2-3.2-.8-3.3,2.1-8.5,4.7-8.6.3,0,.9,2.5,1.3,5.6Z"/>
        <path class="st3" d="M326.3,338c-8.4,3.9-13.5,11.5-13.5,20.1s10.5,18.8,24,15.4c4.9-1.2,5.5-1.7,5.8-4.2.6-4.8-1.1-5.7-9.3-5-6.5.5-7.4.4-9.4-1.6s-2.7-5.1-.4-9.8c1.9-4.1,6.6-7.3,10.6-7.3s6.7-3,6.7-5-4.1-5-6.7-5-5.1,1.1-7.8,2.4h0Z"/>
        <path class="st3" d="M273.8,340.2c-2.7,6.9-.3,27.7,3.7,32.5,3.9,4.6,11.5,3.7,16-1.9,1.1-1.3,1.6-1.2,3.7,1.1,2.7,3,3.8,3.2,6.7,1.7,2.3-1.3,2.4-3.5.3-8.6-1.3-3.2-1.5-5.8-1-13.7.8-10.7.1-12.7-3.9-12.7s-4.1,1.6-5.3,8.6c-1.2,6.7-4.8,14.8-8,17.7-1.9,1.7-2,1.7-2.6-.5-.3-1.3-.6-7.3-.6-13.4,0-12-.6-13.4-5.2-13.4s-3.1.6-3.8,2.6h0Z"/>
      </g>
    </g>
  </g>
</svg>