<?xml version="1.0" encoding="UTF-8"?>
<svg id="Layer_1" xmlns="http://www.w3.org/2000/svg" version="1.1" viewBox="0 0 904 902">
  <!-- Generator: Adobe Illustrator 29.3.1, SVG Export Plug-In . SVG Version: 2.1.0 Build 151)  -->
  <defs>
    <style>
      .st0 {
        fill: #0874a3;
      }
    </style>
  </defs>
  <path class="st0" d="M550,211.9c-5.7,1.2-13.6,5.1-16.1,7.7-3.4,3.7-3.1,9,.7,12,3.8,3.1,5.3,3,11.5-.9,4.6-2.8,6-3.2,12.5-3.2s7.6.3,9.8,2.4c1.8,1.7,2.6,3.5,2.6,5.8s-1.3,4.7-8.4,12.2c-7,7.4-8.5,9.7-9.6,13.9-.6,2.8-.9,5.6-.5,6.2.3.5,4.1,1,8.6,1h8l1.8-4.3c1-2.4,4.9-7.4,8.6-11.2,3.7-3.9,7.6-8.9,8.6-11.3,5-11.7-.2-23.4-12.7-28.7-4.4-1.9-19.9-2.9-25.4-1.6ZM572.2,217.2c2.2.6,5.8,2.8,8,4.7,3.3,3,4.1,4.4,4.5,8.3,1,8.6-.1,11.3-8.7,20.2-4.4,4.5-8.4,9.4-8.9,10.9-.9,2.3-1.6,2.7-5.1,2.7-6.3,0-5.5-3.2,3.1-12.1,11.2-11.4,13-15.9,9-22.5-4.6-7.6-17.2-9.2-28.2-3.6-7,3.6-9.9,3.5-9.9-.3s4-5.5,10.6-7.9c4.8-1.8,20.3-2,25.6-.4Z"/>
  <path class="st0" d="M297.9,252c-5.4.7-14.5,4.4-18.1,7.3-5.8,4.7-2.4,14.7,5.1,14.7s4.2-1.4,7-3.1c9-5.6,21.5-4.2,24.1,2.7,1.5,3.8-.8,8-8.5,15.4-7.1,6.9-9.5,11.2-9.5,16.6v3.4h18v-3c0-2.5,1.5-4.6,7.6-10.8,9.1-9.3,10.5-11.8,11.2-19.8,1.1-13.8-8.1-22.4-25.3-23.7-3.3-.2-8.5-.1-11.6.3ZM319.3,257.5c7.8,3.2,11.7,8.8,11.7,16.5s-2.4,10.7-9.9,18.1c-3.7,3.7-7.4,8.1-8.1,9.8-1.1,2.9-1.6,3.1-6.1,3.1s-4.9-.4-4.9-1.6c0-2.2,5.3-9.7,9.2-12.9,6.1-5,8.8-9.4,8.8-14.5s-1.8-8.3-5.3-10.2c-6.4-3.4-18.3-2.6-24.9,1.7-4.5,3-6.4,2.9-8.5-.2-1.4-2-1.3-2.4,1.2-4.7,5.8-5.4,15-7.8,26.8-7,3.7.3,8.2,1.1,10,1.9Z"/>
  <path class="st0" d="M421.8,271.9c-2,1-5,2.8-6.6,4-1.7,1.1-3.9,2.1-5,2.1-3.9,0-9,3-11.2,6.5-1.7,2.8-2.8,3.5-5.3,3.5-8.5.1-19.2,6.2-22.4,12.7-1.4,3-1.8,6-1.7,13.8.2,11.2,1.2,14.5,7,22,3.3,4.4,3.5,5,2.2,7.3-1.9,3.6-1.6,13,.6,17.2,1.1,1.9,4.4,6,7.4,9.2l5.5,5.8-1.2,27.8c-.9,18.8-1.6,27.9-2.4,28.4-.7.4-3.7,1.5-6.7,2.3-3,.9-7.1,2.1-9,2.6-3,.9-15.6,5.5-21.5,7.9-1.1.4-5.6,2.2-10,3.8-37.8,14.2-41.9,15.9-47.4,20.3-6.2,4.9-9.6,10.1-20.6,31.4-9.9,19.1-18.2,35.1-26.1,50.2-5.6,10.6-6.4,13.3-4,13.3s2.7,2.2-.5,8.8c-13.2,27.4-24.6,51.5-27,57-2.7,6.2-2.5,13.3.6,19.4,1.4,2.7,2.5,5.4,2.5,5.9,0,1.6-2.6,1-4.5-1.1-3.7-4.1-9-1.3-11.4,6.1-.9,2.8-1.8,3.8-4,4.2-4.2.9-5.6,5-4,12.1,1.4,6.6.7,7.9-5.8,10.8-4.5,2-8,5.7-8.9,9.5-.5,2-1.1,2.3-3,1.9-1.8-.5-2.6-.2-3.1,1.1-.3,1-1.3,2.6-2.1,3.6-.8.9-1.2,2-.9,2.4,1.1,1-2.4,4.3-4.5,4.3-4,0-8.5,3.7-11.4,9.3-.8,1.5-1.2,3.2-.9,3.7.4.7,107.8,1,300.7,1h300.1l-.6-5.8c-.6-7.3-2.6-11.1-8.4-16.7-3.9-3.8-4.3-4.6-3.3-6.5,1.8-3.4.9-7.4-1.8-7.8-1.6-.3-2.5-1.2-2.9-3.3-.8-4.3-2.9-5.6-5.3-3.4-1.9,1.7-2.1,1.7-6.5-.4-2.5-1.1-6-2-7.7-1.9-2.8.3-3.3,0-3.4-2.1-.1-1.3-.9-2.8-1.8-3.3s-1.6-2.2-1.6-3.7c0-3.7-2.4-5.9-4.5-4.1-.8.7-1.5,1.9-1.5,2.6,0,1.8-1.5,1.8-3.4-.1-2.8-2.9-7.9-4.3-12.9-3.8-2.6.3-5,1-5.3,1.4-1.1,1.9-2.5.7-4.9-4.4-1.3-2.8-3.3-6.6-4.5-8.2-1.1-1.7-2-3.5-2-4s2.4-2.9,5.2-5c2.9-2.2,6.3-4.9,7.5-5.9l2.3-2v-91.1c0-50.1-.3-91.4-.6-91.8-.6-.5-7.9,3-22.9,11.3-2.7,1.5-9.8,5.3-15.7,8.4s-12.3,6.5-14.1,7.5-6.5,3.5-10.4,5.5l-7.2,3.7-6.8-3.7c-3.7-2-7.3-4.3-8-5.1-.6-.8-2.6-5.9-4.3-11.4-5-15.9-28.6-86.6-32-95.9-3-8.3-3-8.6-1.4-12.5,3.2-7.7,3.4-8.6,3.4-12.5,0-9.5-7.4-21.1-16.1-25.3-2-.9-4.8-3.2-6.3-5.1-2.8-3.7-11.3-7.6-16.5-7.6s-10,2.3-20.6,8.4c-10.2,5.9-13.2,6.9-12,3.8,4-10,4.5-18.5,1.4-24.8-3-6.3-8.2-9.7-18.6-12.4-3.1-.8-5.6-2.5-8.9-6-6-6.4-10.6-8.1-21.4-7.9-4.7,0-11.9-.2-16-.5-6.2-.5-8.1-.3-11.2,1.3ZM536.9,315.8c6.1,3,5,3.9-5.6,4.4-11,.5-16.4,2.3-22.6,7.8-3.1,2.7-4,3-5.2,2-.8-.7-1.5-1.8-1.5-2.4s4.8-4,10.8-7.4c9.1-5.2,11.4-6.1,15.7-6.2,2.8,0,6.5.8,8.4,1.8ZM442.3,324.9c2.6.6,5.6,1.1,6.7,1.1s2,.4,2,1-2.7,1-6.2,1c-6.1,0-12.8,1.7-12.8,3.2s3.8,1,4.5-.2c.8-1.3,10.5-1.3,10.5,0s-1.9,1.4-4.2,2c-12.3,3.1-15.2,4.5-17.5,8-1.2,1.9-2.7,4-3.1,4.5-1.2,1.4-9.2.6-9.2-.9s2-2.8,4.4-4.8c4.4-3.8,8.6-11,8.6-15.1s1.7-4.7,6.9-2.7c2.5.9,6.7,2.2,9.4,2.9ZM492.3,324.4c11.8,5.2,18.4,19.3,14.4,30.6-3.9,11.2-14.1,19-24.7,19-17.1,0-29.8-17.5-24.8-34.4,1.5-5.1,10.8-14.7,15.8-16.3,6.1-1.9,13.5-1.5,19.3,1.1ZM549.4,323.9c8.8,3.8,16.6,15.1,16.6,24.1s-3.7,13.3-7.3,16.9c-8.5,8.8-17.4,11.1-27.9,7.1-19.8-7.4-22.9-33.6-5.3-45.7,6.8-4.6,16.3-5.6,23.9-2.4ZM462,326.6c0,.3-1.3,2.4-2.8,4.7-4.3,6.5-5.2,9.3-5.2,16.7s.9,10.4,5.8,17.2c3.4,4.8,3,5.8-1.1,3.7-6.6-3.4-12.7-13.5-12.7-20.9s3.7-13.4,7.2-16.7c4.4-4.1,8.8-6.5,8.8-4.7ZM520,326.8c0,.5-.9,1.7-1.9,2.6-2.4,2.2-6.1,9.8-6.1,12.6s-1.7,2.1-3-2.5c-1.2-4.3-1.1-4.7,1.1-7.2,2.4-2.6,7.8-6.3,9.2-6.3s.7.4.7.8ZM443.2,339.6c-1.2,7.3-1.2,12.4.1,16.7.8,2.6,1.2,4.9.8,5.1-.8.5-10.3-1.9-13-3.4-2.3-1.2-5.1-6-5.1-8.7s3.5-8,6.2-9.4c2.5-1.4,8.7-2.8,10.3-2.4.6.1.9,1.1.7,2.1ZM398.8,342.3c1.3,1.2,3.1,4.1,4.2,6.4,2.6,5.8,9,7.4,9,2.2s2.1-3.3,6.5-2.5c3,.6,3.6,1.2,4.6,4.7,2.2,7.3,6.4,9.6,24.5,13.4,1.1.3,3.8,1.8,5.9,3.5,5.3,4.2,12.2,6,23.3,6h9.5l-.6,4.7c-2.1,17.9-13.5,31.3-26.6,31.3h-5.4l.6,6.7c.4,3.8.7,9.4.7,12.6v5.8l4.5,2c5.1,2.2,5.4,3.3,2.5,8.9-5,9.7-13.4,15.9-22.9,16.7-5.8.5-6,.5-22-7.8-13.2-6.9-16.3-8.1-17-7-.8,1.2-2.4.4-8.6-4.3-4.2-3.2-7.4-6.3-7.2-6.9.1-.5,2.3-1.7,4.7-2.6l4.5-1.7.7-19.9c.3-11,.9-24.5,1.2-30l.6-10-6.4-6.7c-9.6-9.8-11.5-18.9-5.4-25.5,3.5-3.8,10.5-3.8,14.6,0ZM512,354.2c0,2.4,5.2,12.2,7,13.3,1.5.9,1.2,2.5-.4,2.5s-10.6-7.9-10.6-9.8,2.3-8.2,3.2-8.2.8,1,.8,2.2ZM508.8,368.1c6.4,5.6,11.5,7.3,23.7,7.7,9.3.3,11.8.1,16.6-1.7,3-1.2,6.5-3.1,7.8-4.2,1.4-1.3,2.6-1.8,3.2-1.2,1.2,1.2,7.3,18.3,17.6,49.8,4.7,14.3,10.7,32.6,13.4,40.7,4.6,13.7,5.6,17.8,4.4,17.8s-4.4-2.2-9.2-4.9c-4.9-2.6-11.9-6.5-15.8-8.6-3.8-2.1-9-5.1-11.5-6.5l-4.5-2.6-4.2-20.7c-3.9-19.2-4.5-21.4-9-29.5-2.6-4.8-5.1-9.5-5.5-10.5-.5-1.1-1.8-1.7-3.8-1.7-5.8,0-13.1-4.5-22.4-13.9-8.9-8.9-9-9-7.1-11.1,1-1.1,2-2,2.3-2s2,1.4,4,3.1ZM508.3,381.8c10.3,9.8,12.4,11.1,20.5,13.2,2.4.6,4.6,1.9,5,2.8.4,1,2.6,5.1,4.9,9.2,3.7,6.6,4.7,9.9,7.7,25,2,9.6,3.2,17.8,2.8,18.2s-2,.1-3.6-.7c-2.5-1.3-3.1-1.3-5.5.4-1.4,1-5.2,3.2-8.4,4.9l-5.8,3.2-7.2-2.4c-4-1.4-12.4-4.3-18.7-6.6s-16.2-5.7-22-7.6c-19.5-6.3-18.4-5.8-19.1-9-.4-1.6-.7-5.8-.8-9.4v-6.5c-.1,0,5.6-1.4,5.6-1.4,13.5-3.1,21.6-13.6,25.7-33.4.8-3.8,1.6-7,1.8-7,.2-.1,1.2-.7,2.3-1.4,1.1-.6,2.6-1.2,3.2-1.2.7-.1,5.9,4.3,11.6,9.7ZM384,445.5c1.4,1.2,5.5,4.3,9.3,6.9l6.7,4.8-.2,47.6-.3,47.6-7.3,1.7c-8.8,2.2-12,4.4-15.9,10.6-1.7,2.7-5.6,9.1-8.8,14.3q-7.8,12.6-13.3,13.3c-2.6.4-11.9,1.5-20.7,2.7-22.7,2.9-20.5,3.5-20.5-6s.4-10,7.5-21c12.8-19.9,14.6-23,14.3-24.7-.2-1-1.1-1.9-1.9-2.1-1.2-.2-4.1,3.7-9.9,13-11.9,19.2-13,20.8-13.7,20.8s-51.7-12.4-57.5-14c-2.1-.6-3.8-1.3-3.8-1.5s1.1-2.4,2.4-4.7c1.2-2.4,5.8-11.1,10.1-19.3,4.3-8.3,9.9-19.1,12.5-24,2.6-5,7.1-13.7,10.1-19.4,9.1-17.6,14-21.7,36.4-30.1,6.1-2.3,14.4-5.5,18.5-7,4.1-1.6,12.5-4.7,18.5-7,6.1-2.3,13-5,15.5-6,4.9-1.9,6.4-1.5,12,3.5ZM480.8,447c4.6,1.6,10.2,3.6,12.5,4.4s8.6,3.1,14.1,5c5.4,2,10,3.6,10.2,3.6s.4.4.4.9-6,4.3-13.2,8.6c-7.3,4.3-16.6,9.7-20.7,12.1-4,2.4-7.8,4.4-8.4,4.4-1.1,0-8.3-3.6-23.7-11.9-7.6-4-9.7-6.1-6.3-6.1s11.1-5.5,14.5-9.4c1.6-1.7,4.1-5.7,5.6-8.8,3.2-6.8,3.6-6.9,15-2.8ZM417.8,461.1c6.4,3.4,14.9,7.8,18.7,9.9,3.9,2,12.9,6.8,20,10.5,7.2,3.8,13.6,7.2,14.3,7.8,1.9,1.5,1.8,193.5-.2,194.3-.7.3-3.5-.7-6.2-2.2-9.9-5.4-17.2-9.3-28.4-15.2-6.3-3.3-16-8.5-21.5-11.5l-10-5.3-.3-19.9c-.1-10.9.1-20.2.6-20.7s7.3-1.7,15.2-2.9c15.2-2.2,22.6-4.6,23.7-7.6.3-1,1.7-3,3.2-4.6,2-2.1,2.5-3.7,2.4-7-.1-2.3.4-5.2,1.2-6.4,1.9-2.8,1.9-7.7.1-9.2-1-.8-1.2-2.4-.9-5.2.8-5.3-1.3-7.4-9.6-9.9-8.1-2.4-24.2-4.4-29.4-3.7-7.2,1-6.7,4.5-6.7-48.2s.2-49.1,1.7-49.1,5.7,2.8,12.1,6.1ZM565.7,464.9c9.8,5.4,20.7,11.4,24.3,13.4,3.6,1.9,10.1,5.5,14.5,8l8,4.4.3,96.7c.2,76.9,0,96.6-1,96.6s-15.8-7.3-33.5-16.1l-32.3-16.2v-97.7c0-53.7.3-98,.7-98.3.9-1-.2-1.5,19,9.2ZM429.6,557.1c13.5,2.4,18.9,5.5,16.1,9.3-1.1,1.5-2,1.6-7.7.7-9.9-1.6-13.2-1.5-12.8.6.3,1.5,1.8,1.9,8.5,2.4,12.8,1,17.7,4,13.4,8.3-1.9,1.8-2.5,1.9-8.4.8-8.9-1.7-12.7-1.6-12.7.3s.3,1.5.8,1.5c4.4.1,15.1,2.4,16.9,3.5,4.9,3.2,1.8,8.4-3.9,6.7-1.8-.6-5.8-1.2-8.8-1.4-4.5-.2-5.5,0-5.8,1.4-.3,1.5.4,1.8,3.6,1.8,5.9,0,10.3,1.1,10.9,2.7,1.1,3-3.6,4.5-22.6,7.1l-13.3,1.9-5.5,6.2c-3,3.4-8,8.1-11.1,10.4-14.7,11.2-25.5,15.1-56.2,20.7-6.3,1.1-13.5,2.5-16,3s-9.4,1.8-15.5,2.9c-6,1.1-18,3.3-26.5,5-31.9,6-36.4,6.6-40.9,5.3-4.7-1.5-10.5-6.2-12.7-10.3-.7-1.5-1.4-5.5-1.4-8.8,0-5.2.7-7.5,6.4-19.3,3.5-7.3,9.1-18.9,12.3-25.8,12.9-26.9,13.5-28,15.2-28s7.5,1.4,14.6,3.1c34.1,8.3,39,9.7,39.3,11.1.2.8-2.9,6.3-6.8,12.2s-6.8,11.1-6.6,11.5c.4.6,13.4-.8,56.1-6.4,7.2-.9,13.3-1.9,13.7-2.1.3-.2,4.7-7.1,9.7-15.2,4.9-8.1,10.2-15.9,11.8-17.4,2.5-2.4,9-4.7,17.3-6.1,5.2-.9,22.9-.7,28.6.4ZM308.6,589.5c.9,3.6-.4,9.2-2.2,9.9-2.8,1.1-6.4.6-6.4-.8s6.2-11.5,7.2-11.6c.4,0,1,1.1,1.4,2.5ZM400.2,635.2l.3,17.2,5.5,2.9c3,1.5,9.3,4.9,14,7.4s12.8,6.8,18,9.6c5.2,2.7,11.4,6,13.8,7.3,2.3,1.3,8.4,4.6,13.6,7.4l9.4,5,4.9-2.8c2.6-1.6,8-4.6,11.8-6.7,7.1-3.9,21.3-11.7,29.5-16.2,2.5-1.4,8.2-4.6,12.8-7l8.2-4.5,5.8,2.9,5.7,2.9,1.1,8.5c.6,4.6,1.7,12.9,2.3,18.4.7,5.5,1.6,13.1,2.1,17,.5,3.8,1.1,8.8,1.2,11l.3,4h-248v-69l4-1.1c2.2-.7,9.6-2.2,16.5-3.4,23.6-4.2,33.3-7,45-13.4,7.5-4,12.9-7.8,16.4-11.5,5.3-5.5,5.5-4.8,5.8,14.1ZM307.7,676.7c-.4,14.1-.7,29.6-.7,34.5v8.8h-9.5c-5.2,0-9.5-.4-9.5-.9s.9-2,2-3.4,2-2.8,2-3.1c0-1.5-4.7-.4-8.7,2-2.5,1.4-4.7,2.3-5,2.1-.9-1,.8-4.7,3.4-7.3s2.2-2.8,1.9-3.2c-1-.9-7.7,1.7-11.3,4.4-1.7,1.3-3.4,2.4-3.7,2.4-1.2,0-.5-7,1.3-12.3,1-3.2,1.5-5.7,1-5.7-1.3,0-4.8,4.1-7.2,8.2-2.4,4.4-3.7,4.8-3.7,1.3s-2-7.5-3.2-7.5-.8,2.7-.8,5.9-.4,7.1-1,8.6q-1,2.5-3.6.8l-2.7-1.7.7,4.7.7,4.7h-68.1v-5.5c0-8.4,3.3-15.9,9.9-22.4,3.2-3.1,6.8-6.3,8.1-7.2,2.3-1.5,2.3-1.7.8-5-3.3-7.1-3.4-11.9-.2-11.9s1.9.9,2.6,2c2,3.2,2.8,2.4,2.8-2.8s2.9-11.2,4.8-11.2,1.5,1.8,2.2,4c1.5,4.6,2,4.8,4.6,1.9,3.3-3.7,5-4.1,8.6-2,5.2,3,11.5,3.5,21.5,1.6,4.8-.9,13.5-2.6,19.3-3.6,5.8-1.1,12.5-2.4,15-2.9,5.2-1.1,11.8-2,17.3-2.4,2.1-.2,4-.6,4.4-1s1.5-.6,2.6-.6c2,0,2,.5,1.4,25.7ZM671.8,654.7c2.6,3.9,5.8,11.2,6.7,15.3,1.1,5.3,1.5,5.5,4.7,1.6,1.6-2,3.8-3.6,4.9-3.6,1.6,0,1.9.7,1.9,5s.2,5,2.5,5,3.5,2.7.9,3.7-1.1,1,.9,3.2c1.4,1.4,2.9,3.5,3.5,4.6.7,1.5,2.8,2.4,7.9,3.3,7.9,1.5,13.7,4.6,18.3,9.8,3.6,4.1,9.2,15.2,8.4,16.6-.3.4-37.8.8-83.4.8-78.1,0-82.9-.1-83.4-1.8-.3-.9-.8-4.4-1.1-7.7s-1-9.2-1.5-13c-.5-3.9-1.4-11.1-2-16-.6-5-1.3-10.9-1.6-13.3-.4-3.4-.2-4.2,1-4.2s13.8,6.1,28.7,13.6c23.8,11.8,27.3,13.3,28.9,12.2,1.1-.7,7-5.2,13.2-10,6.2-4.7,16.9-12.9,23.8-18.2s13-9.6,13.7-9.6,2,1.2,3.1,2.7Z"/>
  <path class="st0" d="M472.6,328c-8.2,4.1-12.6,11-12.6,19.5,0,24.5,32.4,31.2,42.1,8.7,4.7-10.9.1-23.1-10.6-28.1-5.7-2.7-13.6-2.7-18.9-.1ZM489.1,329.4c5.3,2.2,8.5,5.2,10.8,10.1,3.8,8.1,2.6,14.9-3.8,21.8s-14.3,8.5-22.5,4.6c-5-2.3-6.5-3.8-9.5-9.2-8.5-15.3,8.7-34.1,25-27.3Z"/>
  <path class="st0" d="M530.5,327.7c-4.5,2.3-9.5,7.4-11.1,11.2-.8,1.8-1.4,6.1-1.4,9.5,0,20.3,25,29.1,38.4,13.4,3.9-4.5,6.1-11.3,5.3-16.3-1.3-7.7-6.9-15.3-13.6-18.1-4.4-1.9-13.8-1.7-17.6.3ZM547.3,329.5c4.7,1.9,10.2,8.5,11.7,14,4,14.3-12.4,28.8-26.1,23.1-8.5-3.5-12.9-10.1-12.9-18.9s3.8-14,11.5-18c3.8-2,11.2-2.1,15.8-.2Z"/>
  <path class="st0" d="M456.3,387.6c-1.8.8-3.3,1.8-3.3,2.4,0,1.6,5.6,4,9.3,4s8.1-3.3,6.7-6c-1.3-2.4-7.7-2.6-12.7-.4Z"/>
  <path class="st0" d="M553.8,278c-2.8,2.8-3,3.6-2.6,8,.6,6.4,4.4,10,10.5,10s10.2-4.7,10.3-10.8c0-3.5-.6-4.9-2.9-7.3-2.4-2.4-3.8-2.9-7.6-2.9s-5.2.5-7.7,3ZM566.7,281.8c3,4,0,9.2-5.2,9.2s-6.9-3.4-5.9-7.5c1.1-4.5,8.1-5.6,11.1-1.7Z"/>
  <path class="st0" d="M301.4,316.5c-9.7,5-5.7,19.4,5.4,19.5,7.4,0,12.9-7.5,10.2-13.9-.6-1.6-2-3.7-3-4.6-2.7-2.4-8.9-2.9-12.6-1ZM311.5,321.5c3,2.9,3.2,5.4.5,8.3-2.8,3-8.3,3-10.4,0-2.2-3.1-2-6.4.4-8.8s6.6-2.5,9.5.5Z"/>
  <path class="st0" d="M691.4,362.1c-.3.6,0,1.7.8,2.5,1.3,1.3,1.6,1.3,2.7,0,.7-.8,1-2,.6-2.6-.8-1.3-3.2-1.3-4.1.1Z"/>
  <path class="st0" d="M727.5,390.2c-.6,2.1-1.7,3.4-3,3.6-4.6.7-5,1.4-1.5,2.6,2.6.9,3.7,2.1,4.5,4.4,1.1,3.8,2.5,4.2,2.5.8s1.4-4.2,5.2-5.1c3.2-.8,2.8-2.5-.6-2.5s-4.6-1.8-4.6-4.7-1.4-2.8-2.5.9Z"/>
  <path class="st0" d="M224.5,449.9c-.6,2.6-1.6,3.7-4.4,4.8-3.8,1.6-3.7,1.8,2.2,3.7,1,.3,1.7,1.5,1.7,3,0,3.9,1.7,4,3,.2.8-2.6,1.8-3.5,4-4,3.8-.7,3.8-2.3.1-3.1-2.1-.4-3.3-1.6-4.4-4.3l-1.5-3.7-.7,3.4Z"/>
</svg>