<svg width="37" height="35" viewBox="0 0 37 35" fill="none" xmlns="http://www.w3.org/2000/svg">
<mask id="path-1-inside-1_111_188" fill="white">
<path d="M10.7903 29.8886L18.5012 25.2596L26.2121 29.9495L24.1926 21.1788L30.9855 15.3317L22.0507 14.5399L18.5012 6.25644L14.9518 14.479L6.01694 15.2708L12.8099 21.1788L10.7903 29.8886ZM7.05729 35L10.0927 22.0559L0 13.3534L13.2945 12.2083L18.5012 0L23.7079 12.2059L37 13.351L26.9073 22.0535L29.9452 34.9976L18.5012 28.1272L7.05729 35Z"/>
</mask>
<path d="M10.7903 29.8886L18.5012 25.2596L26.2121 29.9495L24.1926 21.1788L30.9855 15.3317L22.0507 14.5399L18.5012 6.25644L14.9518 14.479L6.01694 15.2708L12.8099 21.1788L10.7903 29.8886ZM7.05729 35L10.0927 22.0559L0 13.3534L13.2945 12.2083L18.5012 0L23.7079 12.2059L37 13.351L26.9073 22.0535L29.9452 34.9976L18.5012 28.1272L7.05729 35Z" fill="#FFCD29"/>
<path d="M10.7903 29.8886L7.86787 29.211L6.27027 36.1012L12.3344 32.4607L10.7903 29.8886ZM18.5012 25.2596L20.0602 22.6965L18.5114 21.7545L16.9571 22.6875L18.5012 25.2596ZM26.2121 29.9495L24.6532 32.5127L30.7321 36.21L29.1356 29.2764L26.2121 29.9495ZM24.1926 21.1788L22.2355 18.9051L20.8626 20.0868L21.2691 21.852L24.1926 21.1788ZM30.9855 15.3317L32.9426 17.6054L38.3272 12.9705L31.2503 12.3434L30.9855 15.3317ZM22.0507 14.5399L19.2932 15.7215L19.9995 17.3699L21.7859 17.5282L22.0507 14.5399ZM18.5012 6.25644L21.2587 5.07485L18.5114 -1.33668L15.7469 5.06747L18.5012 6.25644ZM14.9518 14.479L15.2166 17.4673L16.9975 17.3094L17.7061 15.668L14.9518 14.479ZM6.01694 15.2708L5.75212 12.2825L-1.27439 12.9052L4.04818 17.5344L6.01694 15.2708ZM12.8099 21.1788L15.7323 21.8564L16.1398 20.0991L14.7786 18.9152L12.8099 21.1788ZM7.05729 35L4.13653 34.3151L2.51569 41.227L8.60185 37.5718L7.05729 35ZM10.0927 22.0559L13.0135 22.7408L13.4285 20.971L12.0518 19.7839L10.0927 22.0559ZM0 13.3534L-0.257438 10.3645L-7.35179 10.9755L-1.95906 15.6254L0 13.3534ZM13.2945 12.2083L13.552 15.1973L15.3472 15.0426L16.0541 13.3852L13.2945 12.2083ZM18.5012 0L21.2607 -1.17709L18.501 -7.64661L15.7417 -1.17689L18.5012 0ZM23.7079 12.2059L20.9485 13.383L21.6554 15.0402L23.4504 15.1948L23.7079 12.2059ZM37 13.351L38.9591 15.623L44.3517 10.9732L37.2575 10.362L37 13.351ZM26.9073 22.0535L24.9482 19.7814L23.5712 20.9688L23.9867 22.7389L26.9073 22.0535ZM29.9452 34.9976L28.401 37.5696L34.4879 41.2239L32.8658 34.3121L29.9452 34.9976ZM18.5012 28.1272L20.0454 25.5551L18.501 24.6279L16.9567 25.5553L18.5012 28.1272ZM10.7903 29.8886L12.3344 32.4607L20.0453 27.8318L18.5012 25.2596L16.9571 22.6875L9.24625 27.3165L10.7903 29.8886ZM18.5012 25.2596L16.9423 27.8228L24.6532 32.5127L26.2121 29.9495L27.7711 27.3864L20.0602 22.6965L18.5012 25.2596ZM26.2121 29.9495L29.1356 29.2764L27.1161 20.5057L24.1926 21.1788L21.2691 21.852L23.2886 30.6227L26.2121 29.9495ZM24.1926 21.1788L26.1497 23.4525L32.9426 17.6054L30.9855 15.3317L29.0284 13.058L22.2355 18.9051L24.1926 21.1788ZM30.9855 15.3317L31.2503 12.3434L22.3155 11.5516L22.0507 14.5399L21.7859 17.5282L30.7207 18.32L30.9855 15.3317ZM22.0507 14.5399L24.8082 13.3583L21.2587 5.07485L18.5012 6.25644L15.7437 7.43803L19.2932 15.7215L22.0507 14.5399ZM18.5012 6.25644L15.7469 5.06747L12.1974 13.29L14.9518 14.479L17.7061 15.668L21.2556 7.44541L18.5012 6.25644ZM14.9518 14.479L14.687 11.4907L5.75212 12.2825L6.01694 15.2708L6.28176 18.2591L15.2166 17.4673L14.9518 14.479ZM6.01694 15.2708L4.04818 17.5344L10.8411 23.4424L12.8099 21.1788L14.7786 18.9152L7.98569 13.0072L6.01694 15.2708ZM12.8099 21.1788L9.88739 20.5012L7.86787 29.211L10.7903 29.8886L13.7128 30.5663L15.7323 21.8564L12.8099 21.1788ZM7.05729 35L9.97806 35.6849L13.0135 22.7408L10.0927 22.0559L7.17192 21.371L4.13653 34.3151L7.05729 35ZM10.0927 22.0559L12.0518 19.7839L1.95906 11.0814L0 13.3534L-1.95906 15.6254L8.13363 24.3279L10.0927 22.0559ZM0 13.3534L0.257438 16.3423L13.552 15.1973L13.2945 12.2083L13.0371 9.2194L-0.257438 10.3645L0 13.3534ZM13.2945 12.2083L16.0541 13.3852L21.2607 1.17689L18.5012 0L15.7417 -1.17689L10.535 11.0314L13.2945 12.2083ZM18.5012 0L15.7418 1.17709L20.9485 13.383L23.7079 12.2059L26.4673 11.0288L21.2607 -1.17709L18.5012 0ZM23.7079 12.2059L23.4504 15.1948L36.7425 16.3399L37 13.351L37.2575 10.362L23.9654 9.21697L23.7079 12.2059ZM37 13.351L35.0409 11.0789L24.9482 19.7814L26.9073 22.0535L28.8664 24.3255L38.9591 15.623L37 13.351ZM26.9073 22.0535L23.9867 22.7389L27.0245 35.683L29.9452 34.9976L32.8658 34.3121L29.828 21.368L26.9073 22.0535ZM29.9452 34.9976L31.4893 32.4255L20.0454 25.5551L18.5012 28.1272L16.9571 30.6993L28.401 37.5696L29.9452 34.9976ZM18.5012 28.1272L16.9567 25.5553L5.51274 32.4282L7.05729 35L8.60185 37.5718L20.0458 30.699L18.5012 28.1272Z" fill="#FFCD29" mask="url(#path-1-inside-1_111_188)"/>
</svg>
